<!DOCTYPE svg PUBLIC "-//W3C//DTD SVG 1.1//EN" "http://www.w3.org/Graphics/SVG/1.1/DTD/svg11.dtd">
<!-- Uploaded to: SVG Repo, www.svgrepo.com, Transformed by: SVG Repo Mixer Tools -->
<svg fill="#00f0ff" height="64px" width="64px" version="1.1" id="Layer_1" xmlns="http://www.w3.org/2000/svg" xmlns:xlink="http://www.w3.org/1999/xlink" viewBox="0 0 512 512" xml:space="preserve">
<g id="SVGRepo_bgCarrier" stroke-width="0"/>
<g id="SVGRepo_tracerCarrier" stroke-linecap="round" stroke-linejoin="round"/>
<g id="SVGRepo_iconCarrier"> <g> <g> <path d="M435.2,0h-34.133c-4.713,0-8.533,3.82-8.533,8.533v400.956c0,28.223-22.98,51.2-51.2,51.2L230.391,460.8 c-28.209,0-51.191-22.983-51.191-51.2v-68.267h17.067c3.746,0,7.054-2.443,8.156-6.024l20.963-68.131 c0.025-0.077,0.048-0.154,0.071-0.231l13.099-42.571c0.25-0.813,0.377-1.659,0.377-2.51V110.933c0-4.713-3.82-8.533-8.533-8.533 V17.067c0-4.713-3.821-8.533-8.533-8.533h-25.6c0-4.713-3.82-8.533-8.533-8.533h-68.267c-4.713,0-8.533,3.82-8.533,8.533h-25.6 c-4.713,0-8.533,3.821-8.533,8.533V102.4c-4.713,0-8.533,3.82-8.533,8.533v110.933c0,0.851,0.127,1.697,0.377,2.51l2.615,8.5 c0.012,0.038,0.023,0.076,0.035,0.114l10.453,33.973c0.02,0.067,0.04,0.134,0.061,0.2l10.474,34.04c0,0,0,0,0,0.001l10.494,34.105 c1.102,3.581,4.41,6.024,8.156,6.024H128V409.6c0,56.468,45.932,102.4,102.4,102.4l110.942-0.111 c56.462,0,102.391-45.927,102.391-102.4V8.533C443.733,3.82,439.913,0,435.2,0z M213.333,25.6v76.8h-17.067H179.2V85.333h8.533 c4.713,0,8.533-3.82,8.533-8.533V25.6H213.333z M136.533,119.467h34.133h15.992c-3.788,14.725-17.149,25.6-33.059,25.6 c-15.909,0-29.271-10.875-33.059-25.6H136.533z M179.2,17.067v51.2h-8.533c-4.713,0-8.533,3.821-8.533,8.533v25.6h-17.067V76.8 c0-4.713-3.82-8.533-8.533-8.533H128v-51.2H179.2z M93.867,25.6h17.067v51.2c0,4.713,3.82,8.533,8.533,8.533H128V102.4h-17.067 H93.867V25.6z M111.985,307.2h16.011c4.713,0,8.533-3.82,8.533-8.533s-3.82-8.533-8.533-8.533h-21.262l-5.251-17.067h26.519 c4.713,0,8.533-3.82,8.533-8.533s-3.82-8.533-8.533-8.533h-31.77l-5.251-17.067h37.017c4.713,0,8.533-3.82,8.533-8.533 s-3.82-8.533-8.533-8.533H85.728l-0.395-1.283V204.8H128c4.713,0,8.533-3.82,8.533-8.533c0-4.713-3.82-8.533-8.533-8.533H85.333 v-68.267h17.788c4.063,24.216,25.106,42.667,50.479,42.667c25.373,0,46.416-18.45,50.479-42.667h17.788v68.267H179.2 c-4.713,0-8.533,3.82-8.533,8.533c0,4.713,3.82,8.533,8.533,8.533h42.667v15.784l-0.395,1.283H179.2 c-4.713,0-8.533,3.82-8.533,8.533s3.82,8.533,8.533,8.533h37.021L210.969,256H179.2c-4.713,0-8.533,3.821-8.533,8.533 s3.82,8.533,8.533,8.533h26.518l-5.251,17.067H179.2c-4.713,0-8.533,3.82-8.533,8.533s3.82,8.533,8.533,8.533h16.015 l-5.251,17.067h-19.297h-34.133h-19.297L111.985,307.2z M426.667,409.489c0,47.047-38.288,85.333-85.333,85.333l-110.942,0.111 c-47.033,0-85.325-38.292-85.325-85.333v-68.267h17.067V409.6c0,37.643,30.624,68.267,68.267,68.267l110.942-0.111 c37.637,0,68.258-30.618,68.258-68.267V17.067h17.067V409.489z"/> </g> </g> </g>
</svg>